<svg xmlns="http://www.w3.org/2000/svg" viewBox="0 0 20 20" fill="#9F6B53"><path d="M5 15h1.25v1.875H5c-1.544 0-2.5-.956-2.5-2.5v-2.187c0-.772-.478-1.25-1.25-1.25H.625V9.062h.625c.772 0 1.25-.478 1.25-1.25V5.626c0-1.544.956-2.5 2.5-2.5h1.25V5H5c-.384 0-.625.24-.625.625v2.188c0 1.025-.425 1.787-1.16 2.187.735.4 1.16 1.162 1.16 2.188v2.187c0 .384.24.625.625.625m13.75-5.937c-.772 0-1.25-.479-1.25-1.25V5.624c0-1.544-.956-2.5-2.5-2.5h-1.25V5H15c.384 0 .625.24.625.625v2.188c0 1.025.425 1.787 1.16 2.187-.735.4-1.16 1.162-1.16 2.188v2.187c0 .384-.24.625-.625.625h-1.25v1.875H15c1.544 0 2.5-.956 2.5-2.5v-2.187c0-.772.478-1.25 1.25-1.25h.625V9.062zM6.25 8.75a1.25 1.25 0 1 0 0 2.5 1.25 1.25 0 0 0 0-2.5M15 10a1.25 1.25 0 1 0-2.5 0 1.25 1.25 0 0 0 2.5 0m-5-1.25a1.25 1.25 0 1 0 0 2.5 1.25 1.25 0 0 0 0-2.5" fill="#9F6B53"></path></svg>