<svg xmlns="http://www.w3.org/2000/svg" viewBox="0 0 20 20" fill="#9F6B53"><path d="M10 2.5c-1.734 0-2.812 1.197-2.812 3.125h5.625C12.813 3.697 11.734 2.5 10 2.5m5 8.75h3.75V10H15V8.122c.856-.019 1.494-.294 2.113-.913l1.325-1.325L17.553 5l-1.325 1.325c-.406.406-.753.55-1.325.55h-4.278v10c1.922 0 3.322-.975 3.969-2.647l.481.481c.406.407.55.754.55 1.325v.841h1.25v-.84c0-.907-.275-1.57-.916-2.21l-1.018-1.019q.057-.445.059-.931zM3.772 6.325 2.447 5l-.885.884L2.889 7.21c.618.62 1.256.891 2.112.913V10H1.25v1.25H5v.625q.002.486.06.931l-1.02 1.019c-.64.64-.915 1.303-.915 2.21v.84h1.25v-.84c0-.572.144-.922.55-1.326l.481-.48c.65 1.671 2.047 2.646 3.969 2.646v-10H5.097c-.572 0-.922-.144-1.325-.55" fill="#9F6B53"></path></svg>