<svg xmlns="http://www.w3.org/2000/svg" viewBox="0 0 20 20" fill="#A6A299"><path d="M12.397 1.04c1.206-.104 1.517-.034 2.276.517l3.137 2.205c.517.38.69.483.69.896v12.094c0 .757-.276 1.205-1.241 1.274l-11.413.69c-.725.034-1.07-.07-1.45-.552l-2.31-2.997c-.414-.552-.586-.966-.586-1.449V2.97c0-.62.276-1.136 1.068-1.205zm4.378 3.997L5.568 5.69c-.413.035-.55.242-.55.69v10.267c0 .552.276.758.896.724l10.724-.62c.62-.035.69-.415.69-.863V5.691c0-.447-.173-.689-.553-.654M15.604 6.93c.068.31 0 .62-.311.656l-.517.103v7.58c-.448.24-.862.378-1.207.378-.552 0-.69-.172-1.103-.688l-3.38-5.306v5.134l1.07.24c0 .016-.012.62-.864.62l-2.378.139c-.069-.138 0-.483.241-.552l.62-.172V8.276l-.86-.07c-.07-.31.102-.758.585-.792l2.552-.172 3.517 5.375V7.862l-.896-.103c-.069-.379.206-.655.55-.689zM12.81 2.005l-9.449.689c-.344.034-.413.207-.276.345l1.346 1.068c.55.448.758.413 1.793.344l9.757-.586c.207 0 .035-.206-.034-.24l-1.62-1.172c-.311-.241-.725-.517-1.517-.448" fill="#A6A299"></path></svg>