<svg version="1.1" xmlns="http://www.w3.org/2000/svg" viewBox="0 0 510.46820551228103 464.5615272101395" width="1020.9364110245621" height="929.123054420279">
  <!-- svg-source:excalidraw -->
  
  <defs>
    <style class="style-fonts">
      @font-face {
        font-family: "Virgil";
        src: url("https://excalidraw.com/Virgil.woff2");
      }
      @font-face {
        font-family: "Cascadia";
        src: url("https://excalidraw.com/Cascadia.woff2");
      }
    </style>
  </defs>
  <rect x="0" y="0" width="510.46820551228103" height="464.5615272101395" fill="#ffffff"></rect><g stroke-linecap="round" transform="translate(108.1757479212825 27.318883748682225) rotate(0 59.5 59.694183349609375)"><path d="M47.66 0.63 C56.04 -1.8, 66.07 0.07, 75.01 2.71 C83.94 5.36, 94.48 10.21, 101.29 16.5 C108.11 22.8, 113.09 31.61, 115.87 40.5 C118.65 49.38, 119.27 60.66, 117.97 69.81 C116.66 78.96, 113.47 87.95, 108.05 95.4 C102.62 102.86, 94.06 110.42, 85.44 114.55 C76.82 118.68, 65.55 120.8, 56.32 120.17 C47.08 119.55, 37.72 115.69, 30.04 110.79 C22.37 105.89, 15.11 98.41, 10.26 90.75 C5.41 83.1, 2.01 73.77, 0.96 64.83 C-0.08 55.89, 0.47 45.83, 3.98 37.12 C7.48 28.42, 14.51 18.57, 21.99 12.61 C29.48 6.65, 44.01 3.25, 48.88 1.36 C53.75 -0.52, 50.87 0.34, 51.22 1.3 M63.56 -0.16 C72.58 -0.12, 84.77 4.87, 92.92 10.03 C101.08 15.19, 108.25 23.03, 112.5 30.78 C116.75 38.54, 118.33 47.23, 118.44 56.55 C118.54 65.86, 117.02 78.32, 113.12 86.68 C109.21 95.04, 102.65 101.31, 95.02 106.69 C87.39 112.08, 76.75 117.64, 67.34 119 C57.92 120.37, 47.27 117.83, 38.51 114.9 C29.74 111.96, 20.66 108.06, 14.75 101.39 C8.84 94.72, 5.36 84.01, 3.04 74.88 C0.72 65.76, -1.12 55.58, 0.83 46.65 C2.77 37.72, 8.78 28.47, 14.71 21.3 C20.64 14.14, 27.89 7.02, 36.41 3.64 C44.93 0.27, 61.2 1.37, 65.83 1.05 C70.47 0.74, 64.66 0.76, 64.23 1.75" stroke="#000000" stroke-width="1" fill="none"></path></g><g transform="translate(112.75747399550124 62.0130670982916) rotate(0 54.5 25)"><text x="54.5" y="18" font-family="Virgil, Segoe UI Emoji" font-size="20px" fill="#000000" text-anchor="middle" style="white-space: pre;" direction="ltr">花弁幅 &lt;= </text><text x="54.5" y="43" font-family="Virgil, Segoe UI Emoji" font-size="20px" fill="#000000" text-anchor="middle" style="white-space: pre;" direction="ltr">0.2949999</text></g><g stroke-linecap="round" transform="translate(10 177.31898244454544) rotate(0 71 54)"><path d="M77.87 0.89 C88.46 0.97, 100.4 4.26, 109.54 8.65 C118.67 13.03, 127.17 19.78, 132.69 27.23 C138.2 34.67, 142.28 44.85, 142.63 53.31 C142.97 61.78, 139.53 70.78, 134.76 78 C129.99 85.21, 122.73 91.68, 114.01 96.61 C105.3 101.54, 93.61 106.01, 82.46 107.58 C71.31 109.15, 57.82 108.65, 47.13 106.02 C36.44 103.38, 25.71 98.13, 18.32 91.75 C10.93 85.36, 5.48 75.88, 2.81 67.73 C0.14 59.58, 0.18 50.92, 2.31 42.85 C4.44 34.77, 8.57 25.64, 15.57 19.26 C22.57 12.88, 33.75 7.56, 44.31 4.57 C54.87 1.58, 72.72 1.77, 78.94 1.32 C85.16 0.86, 81.71 1.13, 81.63 1.85 M38.78 7.16 C47.7 2.54, 61.04 -0.43, 71.73 -0.54 C82.42 -0.65, 93.13 2.42, 102.91 6.5 C112.69 10.57, 124.18 17.2, 130.42 23.92 C136.67 30.63, 139.2 38.78, 140.38 46.79 C141.57 54.8, 141.48 64.21, 137.52 71.96 C133.55 79.71, 124.76 87.37, 116.58 93.27 C108.41 99.18, 99.07 105.3, 88.45 107.39 C77.83 109.48, 63.75 107.89, 52.87 105.83 C42 103.78, 31.28 100.63, 23.2 95.06 C15.12 89.5, 8.29 80.28, 4.38 72.44 C0.46 64.6, -1.83 56.36, -0.29 48.03 C1.24 39.69, 7.1 29.61, 13.6 22.42 C20.09 15.22, 34.3 7.44, 38.68 4.86 C43.05 2.28, 39.27 6.14, 39.84 6.93" stroke="#000000" stroke-width="1" fill="none"></path></g><g transform="translate(19.5 218.81898244454544) rotate(0 61.5 12.5)"><text x="61.5" y="18" font-family="Virgil, Segoe UI Emoji" font-size="20px" fill="#000000" text-anchor="middle" style="white-space: pre;" direction="ltr"> Iris-setosa</text></g><g stroke-linecap="round" transform="translate(209.23115638783207 168.08569540653008) rotate(0 66.99923706054688 59.3792724609375)"><path d="M36.84 6.3 C45.11 1.44, 57.49 -0.59, 67.98 -0.27 C78.48 0.04, 90.69 3.68, 99.82 8.19 C108.95 12.71, 116.94 19.47, 122.74 26.82 C128.54 34.18, 133.4 43.21, 134.62 52.34 C135.83 61.46, 134.17 72.73, 130.05 81.58 C125.93 90.44, 118.07 99.41, 109.89 105.48 C101.71 111.56, 90.93 116.27, 80.96 118.03 C70.98 119.79, 59.81 118.49, 50.05 116.04 C40.3 113.6, 30.26 109.47, 22.42 103.35 C14.59 97.24, 6.59 87.94, 3.03 79.33 C-0.52 70.72, -0.42 60.61, 1.07 51.68 C2.56 42.74, 5.38 33.49, 11.97 25.73 C18.56 17.97, 35.25 8.63, 40.58 5.12 C45.92 1.61, 43.73 3.85, 43.97 4.68 M89.82 2.91 C99.13 4.86, 107.69 12.38, 114.8 19.29 C121.91 26.2, 129.74 35.67, 132.48 44.35 C135.21 53.04, 133.58 62.75, 131.21 71.42 C128.85 80.09, 125.04 89.43, 118.31 96.37 C111.57 103.32, 100.35 109.29, 90.82 113.11 C81.29 116.94, 71.37 120.13, 61.12 119.34 C50.87 118.56, 38.19 113.47, 29.32 108.39 C20.45 103.31, 12.79 96.91, 7.9 88.87 C3 80.83, 0.21 69.35, -0.08 60.15 C-0.36 50.96, 1.42 41.96, 6.2 33.69 C10.99 25.42, 20.02 16.26, 28.64 10.55 C37.25 4.83, 47.62 0.6, 57.9 -0.59 C68.18 -1.79, 85.05 2.72, 90.32 3.37 C95.59 4.02, 90.17 2.58, 89.53 3.32" stroke="#000000" stroke-width="1" fill="none"></path></g><g transform="translate(228.73039344837895 202.46496786746758) rotate(0 47.5 25)"><text x="47.5" y="18" font-family="Virgil, Segoe UI Emoji" font-size="20px" fill="#000000" text-anchor="middle" style="white-space: pre;" direction="ltr">花弁幅 &lt;=</text><text x="47.5" y="43" font-family="Virgil, Segoe UI Emoji" font-size="20px" fill="#000000" text-anchor="middle" style="white-space: pre;" direction="ltr">0.69 </text></g><g stroke-linecap="round" transform="translate(196.24380526690857 367.5615272101395) rotate(0 72.50000000000003 43.5)"><path d="M95.98 2.1 C106.53 3.74, 118.24 9.58, 125.95 14.59 C133.67 19.6, 139.22 25.96, 142.28 32.15 C145.35 38.33, 146.57 45.16, 144.36 51.72 C142.15 58.29, 136.48 66.05, 129.02 71.54 C121.56 77.03, 110.25 82, 99.58 84.67 C88.91 87.35, 76.03 88.48, 64.99 87.58 C53.95 86.69, 42.5 83.04, 33.35 79.29 C24.19 75.54, 15.77 70.86, 10.07 65.09 C4.36 59.32, -0.5 51.36, -0.88 44.67 C-1.27 37.98, 2.77 30.81, 7.75 24.93 C12.73 19.05, 19.95 13.43, 28.98 9.39 C38.01 5.35, 49.88 1.67, 61.92 0.68 C73.96 -0.31, 94.06 2.65, 101.22 3.47 C108.38 4.28, 105.21 4.84, 104.88 5.58 M97.55 3.18 C107.95 5.07, 120.69 10.48, 128.09 15.38 C135.49 20.28, 139.47 26.32, 141.95 32.58 C144.43 38.83, 145.79 46.46, 142.96 52.92 C140.14 59.39, 132.46 65.99, 125.01 71.37 C117.56 76.76, 108.74 82.78, 98.27 85.24 C87.8 87.69, 73.53 86.99, 62.18 86.1 C50.84 85.2, 39.26 83.73, 30.2 79.86 C21.14 75.98, 13 68.85, 7.82 62.85 C2.65 56.84, -1.13 50.61, -0.85 43.83 C-0.58 37.06, 3.97 28.45, 9.5 22.18 C15.03 15.92, 23.01 9.9, 32.33 6.23 C41.65 2.56, 54.23 0.93, 65.43 0.18 C76.62 -0.56, 94.1 1.37, 99.48 1.76 C104.86 2.16, 98.04 1.65, 97.71 2.56" stroke="#000000" stroke-width="1" fill="none"></path></g><g transform="translate(200.74380526690862 398.5615272101395) rotate(0 68 12.5)"><text x="68" y="18" font-family="Virgil, Segoe UI Emoji" font-size="20px" fill="#000000" text-anchor="middle" style="white-space: pre;" direction="ltr">Iris-versicolor</text></g><g stroke-linecap="round" transform="translate(350.6162133484725 319.32788730619257) rotate(0 74.92599608190426 53.668304443359375)"><path d="M74.51 0.91 C85.54 0.11, 98.33 2.66, 108.73 6.12 C119.14 9.57, 130.07 14.89, 136.94 21.64 C143.82 28.39, 148.7 38.07, 150 46.62 C151.29 55.17, 148.95 65.05, 144.7 72.96 C140.44 80.87, 132.9 88.77, 124.47 94.08 C116.04 99.4, 105.07 102.84, 94.12 104.85 C83.17 106.87, 70.26 107.95, 58.76 106.18 C47.26 104.4, 33.98 99.59, 25.14 94.21 C16.29 88.83, 9.9 81.45, 5.69 73.9 C1.48 66.34, -1.35 57.21, -0.14 48.9 C1.08 40.58, 6.47 31.09, 12.98 24.01 C19.5 16.92, 27.53 10.37, 38.95 6.37 C50.38 2.37, 72.79 0.63, 81.53 0 C90.26 -0.63, 91.22 1.6, 91.38 2.57 M62.3 1.2 C73 -1.19, 85.19 -0.74, 96.19 1.45 C107.18 3.63, 120.09 8.47, 128.27 14.3 C136.46 20.13, 141.77 28.1, 145.31 36.43 C148.84 44.77, 151.5 56, 149.46 64.32 C147.43 72.63, 140.48 79.78, 133.09 86.31 C125.71 92.84, 115.63 100.08, 105.15 103.5 C94.67 106.91, 81.85 107.33, 70.19 106.82 C58.53 106.3, 44.97 104.75, 35.2 100.39 C25.42 96.04, 17.33 88.17, 11.54 80.71 C5.74 73.25, 1.12 63.84, 0.44 55.64 C-0.24 47.43, 2.66 39.07, 7.47 31.49 C12.28 23.9, 20.41 15.43, 29.29 10.12 C38.18 4.8, 55.17 0.95, 60.78 -0.4 C66.39 -1.74, 62.58 0.98, 62.95 2.07" stroke="#000000" stroke-width="1" fill="none"></path></g><g stroke-linecap="round"><g transform="translate(139.63113122206374 135.5581125339624) rotate(0 -23.01289871688931 25.1251764164865)"><path d="M-0.07 -0.03 C-7.63 8.16, -37.59 41.41, -44.9 49.99 M-1.56 -1.1 C-9.34 7.21, -38.85 42.89, -45.96 51.35" stroke="#000000" stroke-width="1" fill="none"></path></g><g transform="translate(139.63113122206374 135.5581125339624) rotate(0 -23.01289871688931 25.1251764164865)"><path d="M-35.83 22.77 C-39.6 34.01, -40.68 42.15, -45.31 53.3 M-36.44 24.11 C-38.62 29.81, -39.59 34.22, -45.24 51.57" stroke="#000000" stroke-width="1" fill="none"></path></g><g transform="translate(139.63113122206374 135.5581125339624) rotate(0 -23.01289871688931 25.1251764164865)"><path d="M-20.08 35.92 C-29.27 42.69, -35.69 46.37, -45.31 53.3 M-20.68 37.26 C-26.27 40.24, -30.53 41.9, -45.24 51.57" stroke="#000000" stroke-width="1" fill="none"></path></g></g><mask></mask><g stroke-linecap="round"><g transform="translate(214.6921082137908 133.8650416495716) rotate(0 13.621654011691447 21.284679493059897)"><path d="M-0.03 -0.21 C4.63 7.12, 23.72 36.73, 28.76 43.94 M-1.51 -1.37 C2.89 5.63, 22.38 34.61, 27.63 42.24" stroke="#000000" stroke-width="1" fill="none"></path></g><g transform="translate(214.6921082137908 133.8650416495716) rotate(0 13.621654011691447 21.284679493059897)"><path d="M6.18 26.44 C15.58 34.4, 21.88 38.82, 29.58 40.42 M7.52 26.06 C15.4 33.19, 21.98 39.52, 27.85 41.32" stroke="#000000" stroke-width="1" fill="none"></path></g><g transform="translate(214.6921082137908 133.8650416495716) rotate(0 13.621654011691447 21.284679493059897)"><path d="M20.9 16.45 C24.9 28.07, 25.81 36.15, 29.58 40.42 M22.24 16.06 C24.51 26.92, 25.45 37.08, 27.85 41.32" stroke="#000000" stroke-width="1" fill="none"></path></g></g><mask></mask><g stroke-linecap="round"><g transform="translate(274.05984215956374 285.0701974948999) rotate(0 -7.055638090562468 40.659729697988354)"><path d="M-0.21 -0.34 C-2.43 13.48, -11.03 69.13, -13.36 82.88 M-1.79 -1.56 C-4.09 11.95, -11.69 67.73, -13.9 81.33" stroke="#000000" stroke-width="1" fill="none"></path></g><g transform="translate(274.05984215956374 285.0701974948999) rotate(0 -7.055638090562468 40.659729697988354)"><path d="M-20.49 53.26 C-16.35 60.49, -15.74 71.21, -15.71 82.98 M-20.87 52.7 C-17.98 60.52, -15.56 70.84, -14.81 81.19" stroke="#000000" stroke-width="1" fill="none"></path></g><g transform="translate(274.05984215956374 285.0701974948999) rotate(0 -7.055638090562468 40.659729697988354)"><path d="M-0.19 56.26 C-2.02 62.57, -7.39 72.4, -15.71 82.98 M-0.57 55.7 C-4.14 62.76, -8.19 72.13, -14.81 81.19" stroke="#000000" stroke-width="1" fill="none"></path></g></g><mask></mask><g stroke-linecap="round"><g transform="translate(332.42329038491715 271.1552766298658) rotate(0 25.135818913124126 29.029604095762735)"><path d="M-0.34 0.79 C8.1 10.23, 42.23 46.92, 50.61 56.39 M1.69 0.16 C10.07 9.81, 42.29 48.61, 50.23 57.9" stroke="#000000" stroke-width="1" fill="none"></path></g><g transform="translate(332.42329038491715 271.1552766298658) rotate(0 25.135818913124126 29.029604095762735)"><path d="M25.55 44.74 C31.82 48.1, 41.6 50.08, 51.89 58.28 M24.99 43.15 C29.72 47.39, 36.75 49.26, 50.09 58.33" stroke="#000000" stroke-width="1" fill="none"></path></g><g transform="translate(332.42329038491715 271.1552766298658) rotate(0 25.135818913124126 29.029604095762735)"><path d="M41.25 31.53 C42.83 38.77, 47.95 44.68, 51.89 58.28 M40.69 29.93 C41.88 37.12, 45.24 42.08, 50.09 58.33" stroke="#000000" stroke-width="1" fill="none"></path></g></g><mask></mask><g transform="translate(370.8790765694369 360.10162741369356) rotate(0 60 12.5)"><text x="0" y="18" font-family="Virgil, Segoe UI Emoji" font-size="20px" fill="#000000" text-anchor="start" style="white-space: pre;" direction="ltr">Iris-virginica</text></g><g transform="translate(156.07656762876007 40.219254731790045) rotate(0 0.00004999999998744897 0.00005000000000165983)" stroke="none"><path fill="#000000" d="M 1.57,-1.57 Q 1.57,-1.57 1.77,-1.27 1.98,-0.98 2.09,-0.64 2.20,-0.29 2.19,0.05 2.18,0.41 2.05,0.75 1.93,1.09 1.70,1.37 1.48,1.65 1.18,1.84 0.87,2.04 0.52,2.12 0.18,2.21 -0.17,2.18 -0.53,2.15 -0.86,2.01 -1.19,1.87 -1.46,1.63 -1.73,1.39 -1.90,1.07 -2.08,0.76 -2.15,0.41 -2.21,0.05 -2.17,-0.29 -2.12,-0.65 -1.96,-0.97 -1.80,-1.29 -1.54,-1.54 -1.29,-1.80 -0.97,-1.96 -0.65,-2.12 -0.29,-2.17 0.06,-2.21 0.41,-2.15 0.76,-2.08 1.07,-1.90 1.39,-1.73 1.63,-1.46 1.87,-1.19 2.01,-0.86 2.15,-0.53 2.18,-0.17 2.21,0.18 2.12,0.52 2.03,0.87 1.84,1.18 1.65,1.48 1.37,1.70 1.09,1.93 0.75,2.05 0.41,2.18 0.05,2.19 -0.30,2.20 -0.64,2.09 -0.98,1.98 -1.27,1.77 -1.57,1.56 -1.57,1.57 -1.57,1.57 -1.73,1.35 -1.90,1.14 -2.01,0.90 -2.12,0.66 -2.16,0.39 -2.21,0.13 -2.20,-0.13 -2.18,-0.40 -2.10,-0.65 -2.02,-0.91 -1.88,-1.14 -1.74,-1.36 -1.55,-1.55 -1.36,-1.74 -1.14,-1.88 -0.91,-2.02 -0.65,-2.10 -0.40,-2.18 -0.13,-2.20 0.13,-2.21 0.39,-2.16 0.66,-2.12 0.90,-2.01 1.14,-1.90 1.35,-1.73 1.57,-1.57 1.57,-1.57 L 1.57,-1.57 Z"></path></g><g transform="translate(147.4436506632333 10) rotate(0 18 12.5)"><text x="0" y="18" font-family="Virgil, Segoe UI Emoji" font-size="20px" fill="#000000" text-anchor="start" style="white-space: pre;" direction="ltr">[0]</text></g><g transform="translate(43.97314954070157 156.74054828844118) rotate(0 13.5 12.5)"><text x="0" y="18" font-family="Virgil, Segoe UI Emoji" font-size="20px" fill="#000000" text-anchor="start" style="white-space: pre;" direction="ltr">[1]</text></g><g transform="translate(257.2208427650684 149.8762246899346) rotate(0 17.5 25)"><text x="0" y="18" font-family="Virgil, Segoe UI Emoji" font-size="20px" fill="#000000" text-anchor="start" style="white-space: pre;" direction="ltr">[2]</text><text x="0" y="43" font-family="Virgil, Segoe UI Emoji" font-size="20px" fill="#000000" text-anchor="start" style="white-space: pre;" direction="ltr"></text></g><g transform="translate(218.35428309755088 332.4039372102003) rotate(0 17.5 12.5)"><text x="0" y="18" font-family="Virgil, Segoe UI Emoji" font-size="20px" fill="#000000" text-anchor="start" style="white-space: pre;" direction="ltr">[3]</text></g><g transform="translate(419.9348427540294 296.41869330708175) rotate(0 17.5 12.5)"><text x="0" y="18" font-family="Virgil, Segoe UI Emoji" font-size="20px" fill="#000000" text-anchor="start" style="white-space: pre;" direction="ltr">[4]</text></g></svg>