<svg version="1.1" xmlns="http://www.w3.org/2000/svg" viewBox="0 0 411.6999346381102 265.39836102812757" width="823.3998692762204" height="530.7967220562551">
  <!-- svg-source:excalidraw -->
  
  <defs>
    <style class="style-fonts">
      @font-face {
        font-family: "Virgil";
        src: url("https://excalidraw.com/Virgil.woff2");
      }
      @font-face {
        font-family: "Cascadia";
        src: url("https://excalidraw.com/Cascadia.woff2");
      }
    </style>
  </defs>
  <rect x="0" y="0" width="411.6999346381102" height="265.39836102812757" fill="#ffffff"></rect><g stroke-linecap="round" transform="translate(161.017052173543 10) rotate(0 60.687649236240645 58.63552284727187)"><path d="M44.03 1.1 C52.21 -2.23, 63.64 -1.38, 73.09 0.74 C82.54 2.86, 93.56 7.77, 100.72 13.83 C107.88 19.89, 112.7 28.59, 116.03 37.09 C119.36 45.59, 121.6 56.04, 120.72 64.84 C119.84 73.64, 115.81 82.4, 110.75 89.88 C105.7 97.36, 98.44 105.08, 90.37 109.7 C82.31 114.31, 71.64 117.47, 62.36 117.56 C53.09 117.66, 43.12 114.15, 34.73 110.25 C26.33 106.35, 17.53 101.25, 12 94.16 C6.46 87.07, 3.01 76.71, 1.52 67.69 C0.03 58.68, -0.02 48.57, 3.08 40.06 C6.18 31.55, 12.1 23.33, 20.1 16.61 C28.1 9.89, 44.79 2.33, 51.07 -0.27 C57.36 -2.86, 57.62 -0.03, 57.79 1.03 M34.24 5.4 C42.09 0.87, 53.25 0.78, 62.74 1.4 C72.23 2.02, 83.17 4.82, 91.16 9.12 C99.15 13.43, 105.57 19.74, 110.68 27.25 C115.79 34.76, 121 45.19, 121.82 54.2 C122.65 63.21, 119.14 73.19, 115.62 81.31 C112.09 89.43, 107.61 97.14, 100.67 102.9 C93.73 108.66, 83.49 113.93, 74 115.89 C64.51 117.85, 52.76 117, 43.72 114.67 C34.67 112.34, 26.55 108.32, 19.73 101.9 C12.9 95.48, 5.69 84.74, 2.77 76.13 C-0.15 67.53, 0.87 59.12, 2.19 50.25 C3.51 41.38, 5.18 30.42, 10.69 22.91 C16.21 15.41, 31.48 7.73, 35.28 5.23 C39.09 2.73, 33.14 6.98, 33.53 7.92" stroke="#364fc7" stroke-width="1" fill="none"></path></g><g transform="translate(175.70470140978364 56.13552284727187) rotate(0 46 12.5)"><text x="46" y="18" font-family="Virgil, Segoe UI Emoji" font-size="20px" fill="#364fc7" text-anchor="middle" style="white-space: pre;" direction="ltr">Age &gt;= 0</text></g><g stroke-linecap="round" transform="translate(10 195.54089902092053) rotate(0 65.4513888544854 29.928731003603517)"><path d="M14.96 0 M14.96 0 C45.29 0.63, 75.63 -2.27, 115.94 0 M14.96 0 C46.49 0.74, 76.4 0.24, 115.94 0 M115.94 0 C127.85 1.73, 131.86 4.34, 130.9 14.96 M115.94 0 C127.71 1.9, 132.83 4.82, 130.9 14.96 M130.9 14.96 C130.9 20.03, 129.1 25.29, 130.9 44.89 M130.9 14.96 C130.81 27.71, 131.13 39.57, 130.9 44.89 M130.9 44.89 C129.38 55.13, 126.81 60.62, 115.94 59.86 M130.9 44.89 C129.34 54.8, 128.01 58.37, 115.94 59.86 M115.94 59.86 C79.23 60.76, 44.53 59.01, 14.96 59.86 M115.94 59.86 C93.82 59.87, 74.03 59.99, 14.96 59.86 M14.96 59.86 C3.13 61.29, 0.79 54.55, 0 44.89 M14.96 59.86 C5.37 57.67, 1.14 55.19, 0 44.89 M0 44.89 C-0.83 38.1, -1.14 27.98, 0 14.96 M0 44.89 C-0.49 33.44, 0.56 22.95, 0 14.96 M0 14.96 C-0.38 3.82, 6.85 0.27, 14.96 0 M0 14.96 C1.94 5.58, 6.56 1.08, 14.96 0" stroke="#364fc7" stroke-width="1" fill="none"></path></g><g transform="translate(45.951388854485344 212.96963002452406) rotate(0 29.5 12.5)"><text x="29.5" y="18" font-family="Virgil, Segoe UI Emoji" font-size="20px" fill="#364fc7" text-anchor="middle" style="white-space: pre;" direction="ltr">death</text></g><g stroke-linecap="round" transform="translate(259.8399422620554 185.11788662888122) rotate(0 70.92999618802742 33.64206789014516)"><path d="M16.82 0 M16.82 0 C59.17 -2.26, 102.67 1.23, 125.04 0 M16.82 0 C40.64 -1.82, 63.95 -1.52, 125.04 0 M125.04 0 C134.34 -1.33, 142.55 6.68, 141.86 16.82 M125.04 0 C136.12 -2.01, 141.9 4.74, 141.86 16.82 M141.86 16.82 C140.78 27.08, 140.14 37.28, 141.86 50.46 M141.86 16.82 C141.16 25.79, 142.77 36.24, 141.86 50.46 M141.86 50.46 C143.37 63.26, 136.71 67.25, 125.04 67.28 M141.86 50.46 C143.26 63.6, 135.32 65.4, 125.04 67.28 M125.04 67.28 C92.53 68.07, 61.84 66.43, 16.82 67.28 M125.04 67.28 C86.21 67.08, 46.75 68.06, 16.82 67.28 M16.82 67.28 C4.62 65.49, 0.08 61.94, 0 50.46 M16.82 67.28 C4.2 65.91, -1.63 61.76, 0 50.46 M0 50.46 C-1.63 42.22, 2.16 37.64, 0 16.82 M0 50.46 C-0.2 40.68, 1.1 32.05, 0 16.82 M0 16.82 C-0.03 6.88, 7.48 0.15, 16.82 0 M0 16.82 C1.74 4.02, 7.32 -0.66, 16.82 0" stroke="#364fc7" stroke-width="1" fill="none"></path></g><g transform="translate(307.7699384500828 206.2599545190264) rotate(0 23 12.5)"><text x="23" y="18" font-family="Virgil, Segoe UI Emoji" font-size="20px" fill="#364fc7" text-anchor="middle" style="white-space: pre;" direction="ltr">alive</text></g><g stroke-linecap="round"><g transform="translate(174.57728932573548 110.39329590817377) rotate(0 -36.328942574747714 45.559832139133256)"><path d="M1.07 0.19 C-11.21 15.52, -60.56 76.87, -72.6 91.88 M0.17 -0.76 C-12.4 14.26, -61.81 74.89, -73.73 90.22" stroke="#364fc7" stroke-width="1" fill="none"></path></g><g transform="translate(174.57728932573548 110.39329590817377) rotate(0 -36.328942574747714 45.559832139133256)"><path d="M-63.83 61.22 C-66.45 74.86, -72.89 83.73, -74.47 90.47 M-63.73 62.22 C-67.95 71.92, -69.91 80.38, -74.27 89.87" stroke="#364fc7" stroke-width="1" fill="none"></path></g><g transform="translate(174.57728932573548 110.39329590817377) rotate(0 -36.328942574747714 45.559832139133256)"><path d="M-47.8 74.03 C-56.67 82.8, -69.38 86.66, -74.47 90.47 M-47.7 75.04 C-57.42 80.17, -64.9 84.22, -74.27 89.87" stroke="#364fc7" stroke-width="1" fill="none"></path></g></g><mask></mask><g stroke-linecap="round"><g transform="translate(262.4488709617357 120.17034642158484) rotate(0 18.08341065803421 33.12396485280421)"><path d="M-0.72 0.81 C5.61 11.71, 30.82 53.83, 36.89 64.74 M1.1 0.18 C7.47 11.32, 30.9 55.35, 36.53 66.06" stroke="#364fc7" stroke-width="1" fill="none"></path></g><g transform="translate(262.4488709617357 120.17034642158484) rotate(0 18.08341065803421 33.12396485280421)"><path d="M15.61 47.82 C18.05 50.09, 25.15 53.13, 35.98 65.61 M14.89 46.88 C21.47 50.89, 26.51 57.52, 35.83 66.51" stroke="#364fc7" stroke-width="1" fill="none"></path></g><g transform="translate(262.4488709617357 120.17034642158484) rotate(0 18.08341065803421 33.12396485280421)"><path d="M33.74 38.21 C32.39 42.36, 35.75 47.38, 35.98 65.61 M33.02 37.27 C34.49 44.09, 34.32 53.48, 35.83 66.51" stroke="#364fc7" stroke-width="1" fill="none"></path></g></g><mask></mask></svg>