<svg xmlns="http://www.w3.org/2000/svg" width="200" height="85.206" viewBox="0 0 200 85.206">
  <g id="logo01" transform="translate(-3.452 -14.395)">
    <path id="パス_1" data-name="パス 1" d="M29.568,90.169a1.394,1.394,0,0,0-.514-.439,1.511,1.511,0,0,0-.713-.174,1.9,1.9,0,0,0-1.467.564,2.345,2.345,0,0,0,0,2.951,1.9,1.9,0,0,0,1.467.564,1.338,1.338,0,0,0,.713-.182,2.175,2.175,0,0,0,.514-.431l1.641,1.724a3.171,3.171,0,0,1-1.368.837,5.139,5.139,0,0,1-1.5.24,5.076,5.076,0,0,1-1.749-.3,4.209,4.209,0,0,1-1.426-.854,4.007,4.007,0,0,1-.953-1.334,4.525,4.525,0,0,1,0-3.481,4,4,0,0,1,.953-1.334,4.2,4.2,0,0,1,1.426-.854,5.077,5.077,0,0,1,1.749-.3,5.152,5.152,0,0,1,1.5.24,3.171,3.171,0,0,1,1.368.837l-1.641,1.724Zm4.194-2.6h2.486v1.293h.033a3.056,3.056,0,0,1,.945-1.119,2.388,2.388,0,0,1,1.376-.373c.143,0,.288.006.431.017a2.213,2.213,0,0,1,.4.066v2.271a3.382,3.382,0,0,0-1.061-.166,2.642,2.642,0,0,0-1.127.2,1.5,1.5,0,0,0-.638.555,2.1,2.1,0,0,0-.29.854,8.311,8.311,0,0,0-.066,1.094v3.365H33.762V87.566Zm15.73,6.663a3.961,3.961,0,0,1-1.508,1.177,4.518,4.518,0,0,1-1.89.414,5.076,5.076,0,0,1-1.749-.3,4.209,4.209,0,0,1-1.426-.854,4.006,4.006,0,0,1-.953-1.334,4.525,4.525,0,0,1,0-3.481,4,4,0,0,1,.953-1.334,4.2,4.2,0,0,1,1.426-.854,5.077,5.077,0,0,1,1.749-.3,3.98,3.98,0,0,1,1.566.3,3.25,3.25,0,0,1,1.193.854,3.888,3.888,0,0,1,.754,1.334,5.36,5.36,0,0,1,.265,1.74v.779H44.105a1.969,1.969,0,0,0,.646,1.135,1.828,1.828,0,0,0,1.227.423,1.868,1.868,0,0,0,1.036-.274,2.774,2.774,0,0,0,.738-.7Zm-2.105-3.547a1.44,1.44,0,0,0-.414-1.077,1.474,1.474,0,0,0-1.111-.448,1.86,1.86,0,0,0-.729.133,1.833,1.833,0,0,0-.539.34,1.489,1.489,0,0,0-.348.481,1.574,1.574,0,0,0-.141.572ZM58.1,94.611h-.033a2.338,2.338,0,0,1-1.1.928,3.789,3.789,0,0,1-1.45.282,3.728,3.728,0,0,1-1.086-.157,2.74,2.74,0,0,1-.92-.472,2.282,2.282,0,0,1-.63-.779,2.38,2.38,0,0,1-.232-1.077,2.467,2.467,0,0,1,.257-1.177,2.3,2.3,0,0,1,.7-.8,3.458,3.458,0,0,1,1-.489,7.345,7.345,0,0,1,1.169-.257,10.943,10.943,0,0,1,1.21-.1c.4-.012.777-.017,1.119-.017a1.293,1.293,0,0,0-.472-1.053,1.7,1.7,0,0,0-1.119-.39,2.431,2.431,0,0,0-1.119.257,3.056,3.056,0,0,0-.9.7L53.156,88.66a4.57,4.57,0,0,1,1.624-.97,5.805,5.805,0,0,1,1.923-.323,5.028,5.028,0,0,1,1.8.273,2.61,2.61,0,0,1,1.127.8,3.1,3.1,0,0,1,.588,1.3,8.569,8.569,0,0,1,.166,1.782v4.094H58.1V94.611Zm-.613-2.52q-.282,0-.7.025a3.568,3.568,0,0,0-.812.141,1.789,1.789,0,0,0-.663.348.8.8,0,0,0-.273.646.71.71,0,0,0,.381.663,1.6,1.6,0,0,0,.8.215,2.5,2.5,0,0,0,.7-.1,2.091,2.091,0,0,0,.605-.282,1.361,1.361,0,0,0,.423-.464,1.338,1.338,0,0,0,.157-.663v-.53h-.613Zm11.6-2.536H66.9v2.685a5.22,5.22,0,0,0,.033.605,1.213,1.213,0,0,0,.149.472.754.754,0,0,0,.356.307,1.593,1.593,0,0,0,.638.108,4.38,4.38,0,0,0,.522-.041.881.881,0,0,0,.489-.191v2.072a3.757,3.757,0,0,1-.862.2,7.962,7.962,0,0,1-.879.05,4.76,4.76,0,0,1-1.16-.133,2.646,2.646,0,0,1-.928-.423,1.98,1.98,0,0,1-.622-.754,2.578,2.578,0,0,1-.224-1.127V89.556H62.819V87.566h1.591V85.18H66.9v2.387h2.188v1.989Zm2.95-1.989h2.486v8.056H72.036Zm-.2-2.536a1.443,1.443,0,1,1,.423,1.019,1.389,1.389,0,0,1-.423-1.019Zm5.288,2.536H79.81l2.039,5.47h.033l1.89-5.47h2.5l-3.183,8.056H80.456l-3.332-8.056ZM96.468,94.23a3.961,3.961,0,0,1-1.508,1.177,4.518,4.518,0,0,1-1.89.414,5.076,5.076,0,0,1-1.749-.3,4.209,4.209,0,0,1-1.426-.854,4.007,4.007,0,0,1-.953-1.334,4.525,4.525,0,0,1,0-3.481A4,4,0,0,1,89.9,88.52a4.2,4.2,0,0,1,1.426-.854,5.077,5.077,0,0,1,1.749-.3,3.98,3.98,0,0,1,1.566.3,3.25,3.25,0,0,1,1.193.854,3.888,3.888,0,0,1,.754,1.334,5.361,5.361,0,0,1,.265,1.74v.779H91.081a1.969,1.969,0,0,0,.646,1.135,1.828,1.828,0,0,0,1.227.423,1.868,1.868,0,0,0,1.036-.274,2.773,2.773,0,0,0,.738-.7Zm-2.105-3.547a1.44,1.44,0,0,0-.414-1.077,1.474,1.474,0,0,0-1.111-.448,1.86,1.86,0,0,0-.729.133,1.833,1.833,0,0,0-.539.34,1.49,1.49,0,0,0-.348.481,1.575,1.575,0,0,0-.141.572Zm17.67-.514a1.394,1.394,0,0,0-.514-.439,1.511,1.511,0,0,0-.713-.174,1.9,1.9,0,0,0-1.467.564,2.345,2.345,0,0,0,0,2.951,1.9,1.9,0,0,0,1.467.564,1.338,1.338,0,0,0,.713-.182,2.175,2.175,0,0,0,.514-.431l1.641,1.724a3.171,3.171,0,0,1-1.368.837,5.139,5.139,0,0,1-1.5.24,5.076,5.076,0,0,1-1.749-.3,4.209,4.209,0,0,1-1.426-.854,4.006,4.006,0,0,1-.953-1.334,4.525,4.525,0,0,1,0-3.481,4,4,0,0,1,.953-1.334,4.2,4.2,0,0,1,1.426-.854,5.077,5.077,0,0,1,1.749-.3,5.152,5.152,0,0,1,1.5.24,3.171,3.171,0,0,1,1.368.837l-1.641,1.724Zm3.9,1.426a4.223,4.223,0,0,1,.348-1.74,4,4,0,0,1,.953-1.334,4.2,4.2,0,0,1,1.426-.854,5.274,5.274,0,0,1,3.5,0,4.206,4.206,0,0,1,1.426.854,4.017,4.017,0,0,1,.953,1.334,4.525,4.525,0,0,1,0,3.481,4.006,4.006,0,0,1-.953,1.334,4.2,4.2,0,0,1-1.426.854,5.274,5.274,0,0,1-3.5,0,4.209,4.209,0,0,1-1.426-.854,4.007,4.007,0,0,1-.953-1.334A4.221,4.221,0,0,1,115.928,91.594Zm2.486,0a2.084,2.084,0,0,0,.522,1.475,2.191,2.191,0,0,0,2.934,0,2.345,2.345,0,0,0,0-2.951,2.191,2.191,0,0,0-2.934,0A2.084,2.084,0,0,0,118.415,91.594ZM128,87.566h2.387V88.66h.033a2.04,2.04,0,0,1,.332-.464,2.438,2.438,0,0,1,.514-.414,2.92,2.92,0,0,1,.68-.3,2.85,2.85,0,0,1,.829-.116,3.148,3.148,0,0,1,1.5.348,2.2,2.2,0,0,1,.986,1.094A2.693,2.693,0,0,1,136.3,87.7a3.133,3.133,0,0,1,1.508-.332,3.08,3.08,0,0,1,1.368.274,2.234,2.234,0,0,1,.878.746,3.142,3.142,0,0,1,.464,1.111,6.289,6.289,0,0,1,.141,1.368v4.757h-2.486V90.931a1.876,1.876,0,0,0-.24-.97.908.908,0,0,0-.854-.406,1.647,1.647,0,0,0-.721.141,1.2,1.2,0,0,0-.464.39,1.616,1.616,0,0,0-.249.58,3.165,3.165,0,0,0-.075.7v4.26h-2.486v-4.26c0-.143-.006-.32-.017-.53a2.119,2.119,0,0,0-.116-.6,1.141,1.141,0,0,0-.323-.481.956.956,0,0,0-.655-.2,1.537,1.537,0,0,0-.779.174,1.186,1.186,0,0,0-.456.464,1.9,1.9,0,0,0-.207.655,5.64,5.64,0,0,0-.05.762v4.011H128V87.566Zm16.311,0h2.287v1.061h.033a2.948,2.948,0,0,1,.953-.845,3.453,3.453,0,0,1,.7-.3,2.789,2.789,0,0,1,.812-.116,4.146,4.146,0,0,1,1.624.307,3.63,3.63,0,0,1,1.251.862,3.857,3.857,0,0,1,.8,1.318,4.786,4.786,0,0,1,.282,1.674,5.066,5.066,0,0,1-.257,1.616,4.457,4.457,0,0,1-.729,1.368,3.564,3.564,0,0,1-1.152.953,3.281,3.281,0,0,1-1.542.356,4.28,4.28,0,0,1-1.45-.24,2.32,2.32,0,0,1-1.1-.821h-.033V99.4h-2.486Zm2.287,4.028a2.084,2.084,0,0,0,.522,1.475,2.191,2.191,0,0,0,2.934,0,2.345,2.345,0,0,0,0-2.951,2.191,2.191,0,0,0-2.934,0A2.084,2.084,0,0,0,146.593,91.594Zm14.636,3.017H161.2a2.338,2.338,0,0,1-1.1.928,3.789,3.789,0,0,1-1.45.282,3.728,3.728,0,0,1-1.086-.157,2.74,2.74,0,0,1-.92-.472,2.281,2.281,0,0,1-.63-.779,2.38,2.38,0,0,1-.232-1.077,2.467,2.467,0,0,1,.257-1.177,2.3,2.3,0,0,1,.7-.8,3.458,3.458,0,0,1,1-.489,7.345,7.345,0,0,1,1.169-.257,10.943,10.943,0,0,1,1.21-.1c.4-.012.777-.017,1.119-.017a1.293,1.293,0,0,0-.472-1.053,1.7,1.7,0,0,0-1.119-.39,2.431,2.431,0,0,0-1.119.257,3.056,3.056,0,0,0-.9.7L156.29,88.66a4.57,4.57,0,0,1,1.624-.97,5.805,5.805,0,0,1,1.923-.323,5.028,5.028,0,0,1,1.8.273,2.61,2.61,0,0,1,1.127.8,3.1,3.1,0,0,1,.588,1.3,8.568,8.568,0,0,1,.166,1.782v4.094H161.23V94.611Zm-.613-2.52q-.282,0-.7.025a3.569,3.569,0,0,0-.812.141,1.79,1.79,0,0,0-.663.348.8.8,0,0,0-.273.646.71.71,0,0,0,.381.663,1.6,1.6,0,0,0,.8.215,2.5,2.5,0,0,0,.7-.1,2.091,2.091,0,0,0,.605-.282,1.362,1.362,0,0,0,.423-.464,1.338,1.338,0,0,0,.157-.663v-.53h-.613Zm6.116-4.525h2.387V88.66h.033a2.041,2.041,0,0,1,.332-.464,2.438,2.438,0,0,1,.514-.414,2.919,2.919,0,0,1,.68-.3,2.85,2.85,0,0,1,.829-.116,3.431,3.431,0,0,1,1.525.29,2.2,2.2,0,0,1,.9.8,3.251,3.251,0,0,1,.439,1.21,9.239,9.239,0,0,1,.116,1.508v4.442H172V91.677q0-.348-.025-.721a2.275,2.275,0,0,0-.149-.688,1.069,1.069,0,0,0-1.119-.713,1.537,1.537,0,0,0-.779.174,1.186,1.186,0,0,0-.456.464,1.9,1.9,0,0,0-.207.655,5.64,5.64,0,0,0-.05.762v4.011h-2.486V87.566Zm15.813,9.365q-.249.646-.481,1.144a2.72,2.72,0,0,1-.588.837,2.292,2.292,0,0,1-.9.514,4.884,4.884,0,0,1-1.442.174,5.832,5.832,0,0,1-1.856-.3l.332-2.039a2.845,2.845,0,0,0,1.16.249,2.138,2.138,0,0,0,.68-.091,1.128,1.128,0,0,0,.439-.265,1.462,1.462,0,0,0,.29-.423q.115-.249.249-.58l.182-.464-3.531-8.122h2.685l2.072,5.321h.033l1.774-5.321h2.553l-3.647,9.365ZM38.209,14.4l-1.283,8.567H21.593L20.033,33.4H33.005l-1.249,8.6H18.749L15.765,62.471H3.452L10.494,14.4H38.21Zm22.822,0L53.851,62.471H41.537L48.648,14.4H61.032Zm45.473,0-1.215,8.567H85.831L84.34,33.4h16.893l-1.215,8.6H82.987l-1.63,11.864h23.656l-1.214,8.6H67.759L74.731,14.4H106.5Zm41.657,39.474-1.248,8.6H112.643L119.615,14.4H132l-5.758,39.474Zm55.29-15.922A27.2,27.2,0,0,1,200.4,51.405a19.552,19.552,0,0,1-9.071,8.256q-6.019,2.81-14.9,2.81H154.267l6.9-48.076h17.689a29.531,29.531,0,0,1,10.979,1.873,20.605,20.605,0,0,1,7.718,5.168,21.107,21.107,0,0,1,4.457,7.51,27.644,27.644,0,0,1,1.44,9Zm-12.522.174a18.587,18.587,0,0,0-1.37-7.007,12.485,12.485,0,0,0-5.047-5.775q-3.676-2.376-10.2-2.376h-1.977l-4.475,30.906h6.453a20.442,20.442,0,0,0,7.926-1.388,13.091,13.091,0,0,0,5.2-3.694,14.186,14.186,0,0,0,2.688-5.012,19.85,19.85,0,0,0,.8-5.654Z" transform="translate(0 0)" fill="#333" fill-rule="evenodd"/>
  </g>
</svg>
