<svg version="1.1" xmlns="http://www.w3.org/2000/svg" viewBox="0 0 509.8642883300781 420.1205749511719" width="1019.7285766601562" height="840.2411499023438">
  <!-- svg-source:excalidraw -->
  
  <defs>
    <style class="style-fonts">
      @font-face {
        font-family: "Virgil";
        src: url("https://excalidraw.com/Virgil.woff2");
      }
      @font-face {
        font-family: "Cascadia";
        src: url("https://excalidraw.com/Cascadia.woff2");
      }
    </style>
  </defs>
  <rect x="0" y="0" width="509.8642883300781" height="420.1205749511719" fill="#ffffff"></rect><g stroke-linecap="round" transform="translate(108.29586791992188 10) rotate(0 59.08172607421875 59.694183349609375)"><path d="M47.33 0.63 C55.64 -1.8, 65.6 0.07, 74.47 2.71 C83.35 5.36, 93.82 10.21, 100.59 16.5 C107.35 22.8, 112.3 31.61, 115.06 40.5 C117.81 49.38, 118.43 60.66, 117.14 69.81 C115.84 78.96, 112.68 87.95, 107.29 95.4 C101.91 102.86, 93.41 110.42, 84.84 114.55 C76.28 118.68, 65.08 120.8, 55.92 120.17 C46.75 119.55, 37.45 115.69, 29.83 110.79 C22.21 105.89, 15.01 98.41, 10.19 90.75 C5.38 83.1, 2 73.77, 0.96 64.83 C-0.08 55.89, 0.47 45.83, 3.95 37.12 C7.43 28.42, 14.41 18.57, 21.84 12.61 C29.27 6.65, 43.7 3.25, 48.53 1.36 C53.37 -0.52, 50.51 0.34, 50.86 1.3 M63.1 -0.16 C72.06 -0.12, 84.17 4.87, 92.28 10.03 C100.38 15.19, 107.5 23.03, 111.72 30.78 C115.94 38.54, 117.5 47.23, 117.6 56.55 C117.7 65.86, 116.2 78.32, 112.32 86.68 C108.45 95.04, 101.93 101.31, 94.35 106.69 C86.77 112.08, 76.21 117.64, 66.86 119 C57.5 120.37, 46.93 117.83, 38.23 114.9 C29.52 111.96, 20.5 108.06, 14.64 101.39 C8.77 94.72, 5.33 84.01, 3.03 74.88 C0.72 65.76, -1.12 55.58, 0.82 46.65 C2.75 37.72, 8.73 28.47, 14.61 21.3 C20.5 14.14, 27.69 7.02, 36.15 3.64 C44.61 0.27, 60.77 1.37, 65.38 1.05 C69.98 0.74, 64.2 0.76, 63.77 1.75" stroke="#000000" stroke-width="1" fill="none"></path></g><g transform="translate(149.87759399414062 57.194183349609375) rotate(0 17.5 12.5)"><text x="17.5" y="18" font-family="Virgil, Segoe UI Emoji" font-size="20px" fill="#000000" text-anchor="middle" style="white-space: pre;" direction="ltr">[3]</text></g><g stroke-linecap="round" transform="translate(10 160.19961547851562) rotate(0 56.27153015136719 53.685028076171875)"><path d="M61.8 0.89 C70.83 1.04, 81.11 4.8, 88.68 9.81 C96.25 14.81, 103.14 22.63, 107.19 30.92 C111.24 39.2, 113.8 50.48, 112.97 59.49 C112.13 68.5, 107.54 77.97, 102.18 84.98 C96.82 91.99, 89.19 97.8, 80.82 101.52 C72.45 105.25, 61.58 107.84, 51.97 107.34 C42.35 106.83, 31.1 103.58, 23.15 98.52 C15.19 93.45, 8.01 85.35, 4.23 76.94 C0.45 68.52, -0.68 57.05, 0.45 48.05 C1.58 39.05, 5.8 30.14, 11.03 22.93 C16.25 15.72, 23.02 8.47, 31.78 4.8 C40.54 1.12, 58.18 1.24, 63.57 0.88 C68.96 0.52, 64.27 1.78, 64.14 2.62 M50.22 1.3 C59.11 0.1, 71.11 2.45, 79.79 5.86 C88.46 9.27, 97.09 14.68, 102.26 21.78 C107.43 28.88, 109.8 39.42, 110.81 48.47 C111.82 57.52, 112.14 68.11, 108.34 76.07 C104.54 84.03, 95.7 91.32, 88 96.24 C80.31 101.17, 71.53 104.78, 62.19 105.62 C52.85 106.46, 40.43 104.56, 31.97 101.28 C23.52 98, 16.87 93.06, 11.46 85.94 C6.06 78.82, 0.7 67.45, -0.45 58.54 C-1.61 49.64, 0.59 40.63, 4.55 32.49 C8.51 24.35, 15.76 14.93, 23.3 9.7 C30.84 4.47, 45.06 2.62, 49.77 1.11 C54.48 -0.39, 51.25 0.13, 51.54 0.69" stroke="#000000" stroke-width="1" fill="none"></path></g><g transform="translate(26.271530151367188 201.3846435546875) rotate(0 40 12.5)"><text x="40" y="18" font-family="Virgil, Segoe UI Emoji" font-size="20px" fill="#000000" text-anchor="middle" style="white-space: pre;" direction="ltr">-2(終了)</text></g><g stroke-linecap="round" transform="translate(208.91793823242188 150.85723876953125) rotate(0 66.99923706054688 59.3792724609375)"><path d="M36.84 6.3 C45.11 1.44, 57.49 -0.59, 67.98 -0.27 C78.48 0.04, 90.69 3.68, 99.82 8.19 C108.95 12.71, 116.94 19.47, 122.74 26.82 C128.54 34.18, 133.4 43.21, 134.62 52.34 C135.83 61.46, 134.17 72.73, 130.05 81.58 C125.93 90.44, 118.07 99.41, 109.89 105.48 C101.71 111.56, 90.93 116.27, 80.96 118.03 C70.98 119.79, 59.81 118.49, 50.05 116.04 C40.3 113.6, 30.26 109.47, 22.42 103.35 C14.59 97.24, 6.59 87.94, 3.03 79.33 C-0.52 70.72, -0.42 60.61, 1.07 51.68 C2.56 42.74, 5.38 33.49, 11.97 25.73 C18.56 17.97, 35.25 8.63, 40.58 5.12 C45.92 1.61, 43.73 3.85, 43.97 4.68 M89.82 2.91 C99.13 4.86, 107.69 12.38, 114.8 19.29 C121.91 26.2, 129.74 35.67, 132.48 44.35 C135.21 53.04, 133.58 62.75, 131.21 71.42 C128.85 80.09, 125.04 89.43, 118.31 96.37 C111.57 103.32, 100.35 109.29, 90.82 113.11 C81.29 116.94, 71.37 120.13, 61.12 119.34 C50.87 118.56, 38.19 113.47, 29.32 108.39 C20.45 103.31, 12.79 96.91, 7.9 88.87 C3 80.83, 0.21 69.35, -0.08 60.15 C-0.36 50.96, 1.42 41.96, 6.2 33.69 C10.99 25.42, 20.02 16.26, 28.64 10.55 C37.25 4.83, 47.62 0.6, 57.9 -0.59 C68.18 -1.79, 85.05 2.72, 90.32 3.37 C95.59 4.02, 90.17 2.58, 89.53 3.32" stroke="#000000" stroke-width="1" fill="none"></path></g><g transform="translate(258.41717529296875 197.73651123046875) rotate(0 17.5 12.5)"><text x="17.5" y="18" font-family="Virgil, Segoe UI Emoji" font-size="20px" fill="#000000" text-anchor="middle" style="white-space: pre;" direction="ltr">[3]</text></g><g stroke-linecap="round" transform="translate(206.92861938476562 330.1205749511719) rotate(0 46.5 40)"><path d="M61.49 1.91 C69.35 3.77, 78.48 10.39, 83.69 16.15 C88.89 21.92, 91.88 29.61, 92.73 36.49 C93.59 43.36, 92.51 51, 88.82 57.39 C85.14 63.78, 78.14 70.89, 70.61 74.81 C63.09 78.74, 52.33 81.18, 43.66 80.94 C35 80.7, 25.3 77.83, 18.61 73.36 C11.93 68.9, 6.4 60.94, 3.56 54.16 C0.72 47.38, 0.16 39.66, 1.55 32.68 C2.94 25.7, 6.17 17.46, 11.9 12.28 C17.63 7.1, 27.06 2.91, 35.93 1.61 C44.8 0.31, 59.53 3.73, 65.09 4.48 C70.66 5.23, 69.6 5.67, 69.34 6.1 M25.54 5.6 C32.43 1.69, 43.14 -0.88, 51.17 -0.36 C59.2 0.15, 67.07 4.09, 73.74 8.69 C80.41 13.28, 88.37 20.58, 91.18 27.2 C93.98 33.81, 92.6 41.65, 90.56 48.36 C88.52 55.06, 84.98 62.5, 78.92 67.42 C72.86 72.35, 62.31 76.14, 54.18 77.91 C46.05 79.68, 37.85 80.58, 30.14 78.04 C22.44 75.51, 13.01 68.6, 7.93 62.73 C2.84 56.86, -0.05 50, -0.36 42.82 C-0.66 35.64, 2 25.89, 6.1 19.64 C10.21 13.39, 20.89 7.84, 24.27 5.32 C27.64 2.8, 25.8 4.28, 26.35 4.53" stroke="#000000" stroke-width="1" fill="none"></path></g><g transform="translate(213.42861938476562 357.6205749511719) rotate(0 40 12.5)"><text x="40" y="18" font-family="Virgil, Segoe UI Emoji" font-size="20px" fill="#000000" text-anchor="middle" style="white-space: pre;" direction="ltr">-2(終了)</text></g><g stroke-linecap="round" transform="translate(382.6088562011719 299.6354064941406) rotate(0 58.627716064453125 53.668304443359375)"><path d="M58.44 0.91 C67.73 0.12, 78.57 3.07, 87.15 7.13 C95.74 11.19, 104.79 17.6, 109.95 25.26 C115.1 32.92, 118.21 43.83, 118.08 53.08 C117.95 62.34, 114.21 72.91, 109.16 80.81 C104.1 88.72, 95.97 96.22, 87.72 100.52 C79.48 104.81, 69.18 106.56, 59.69 106.6 C50.19 106.63, 39.48 105.01, 30.76 100.75 C22.04 96.49, 12.42 88.67, 7.37 81.03 C2.31 73.39, 0.52 63.68, 0.44 54.92 C0.36 46.15, 2.13 36.29, 6.88 28.43 C11.62 20.58, 19.24 12.47, 28.91 7.77 C38.58 3.06, 57.87 1.1, 64.9 0.18 C71.93 -0.73, 71.05 1.29, 71.09 2.25 M78.61 3.88 C87.63 6.41, 99.09 13.76, 105.23 20.55 C111.37 27.35, 114.08 36.13, 115.46 44.67 C116.83 53.21, 117.06 63.54, 113.48 71.81 C109.9 80.07, 101.53 88.31, 93.98 94.28 C86.44 100.25, 77.8 106.16, 68.21 107.63 C58.63 109.1, 45.77 106.38, 36.46 103.1 C27.15 99.82, 18.35 94.95, 12.37 87.97 C6.38 81, 2.09 70.09, 0.56 61.24 C-0.97 52.39, -0.52 43.26, 3.2 34.89 C6.92 26.53, 15.04 16.96, 22.88 11.05 C30.72 5.14, 40.55 0.65, 50.21 -0.58 C59.88 -1.82, 75.9 2.96, 80.88 3.64 C85.86 4.31, 80.73 2.83, 80.11 3.46" stroke="#000000" stroke-width="1" fill="none"></path></g><g stroke-linecap="round"><g transform="translate(139.75125122070312 118.54678344726562) rotate(0 -23.01289871688931 25.1251764164865)"><path d="M-0.07 -0.03 C-7.63 8.16, -37.59 41.41, -44.9 49.99 M-1.56 -1.1 C-9.34 7.21, -38.85 42.89, -45.96 51.35" stroke="#000000" stroke-width="1" fill="none"></path></g><g transform="translate(139.75125122070312 118.54678344726562) rotate(0 -23.01289871688931 25.1251764164865)"><path d="M-35.83 22.77 C-39.6 34.01, -40.68 42.15, -45.31 53.3 M-36.44 24.11 C-38.62 29.81, -39.59 34.22, -45.24 51.57" stroke="#000000" stroke-width="1" fill="none"></path></g><g transform="translate(139.75125122070312 118.54678344726562) rotate(0 -23.01289871688931 25.1251764164865)"><path d="M-20.08 35.92 C-29.27 42.69, -35.69 46.37, -45.31 53.3 M-20.68 37.26 C-26.27 40.24, -30.53 41.9, -45.24 51.57" stroke="#000000" stroke-width="1" fill="none"></path></g></g><mask></mask><g stroke-linecap="round"><g transform="translate(214.3223025245967 116.31654042405103) rotate(0 13.866616855608186 21.5532655624718)"><path d="M-0.03 -0.21 C4.71 7.21, 24.13 37.17, 29.25 44.48 M-1.51 -1.37 C2.97 5.72, 22.79 35.06, 28.12 42.77" stroke="#000000" stroke-width="1" fill="none"></path></g><g transform="translate(214.3223025245967 116.31654042405103) rotate(0 13.866616855608186 21.5532655624718)"><path d="M6.35 26.81 C15.86 34.83, 22.28 39.31, 30.07 40.96 M7.69 26.42 C15.69 33.62, 22.4 40.02, 28.34 41.86" stroke="#000000" stroke-width="1" fill="none"></path></g><g transform="translate(214.3223025245967 116.31654042405103) rotate(0 13.866616855608186 21.5532655624718)"><path d="M21.26 16.65 C25.3 28.39, 26.26 36.59, 30.07 40.96 M22.6 16.26 C24.91 27.25, 25.91 37.54, 28.34 41.86" stroke="#000000" stroke-width="1" fill="none"></path></g></g><mask></mask><g stroke-linecap="round"><g transform="translate(274.1799621582031 268.0588684082031) rotate(0 -9.448856983604571 30.317497613413707)"><path d="M-0.21 -0.34 C-3.23 10.03, -15.02 51.89, -18.15 62.19 M-1.79 -1.56 C-4.88 8.51, -15.68 50.49, -18.68 60.64" stroke="#000000" stroke-width="1" fill="none"></path></g><g transform="translate(274.1799621582031 268.0588684082031) rotate(0 -9.448856983604571 30.317497613413707)"><path d="M-21.69 32.06 C-18.6 39.44, -19.05 50.3, -20.5 62.3 M-22.07 31.5 C-20.33 39.52, -19.05 50.01, -19.6 60.5" stroke="#000000" stroke-width="1" fill="none"></path></g><g transform="translate(274.1799621582031 268.0588684082031) rotate(0 -9.448856983604571 30.317497613413707)"><path d="M-1.9 37.49 C-4.64 43.23, -10.91 52.5, -20.5 62.3 M-2.28 36.93 C-6.82 43.41, -11.85 52.17, -19.6 60.5" stroke="#000000" stroke-width="1" fill="none"></path></g></g><mask></mask><g stroke-linecap="round"><g transform="translate(334.89323797470115 250.8822711848677) rotate(0 32.811305329845425 33.65621509746532)"><path d="M-0.34 0.79 C10.66 11.77, 55.03 54.63, 65.96 65.65 M1.69 0.16 C12.63 11.36, 55.08 56.32, 65.58 67.15" stroke="#000000" stroke-width="1" fill="none"></path></g><g transform="translate(334.89323797470115 250.8822711848677) rotate(0 32.811305329845425 33.65621509746532)"><path d="M40.01 55.67 C46.55 58.53, 56.6 60.01, 67.24 67.53 M39.45 54.07 C44.37 57.93, 51.61 59.41, 65.44 67.58" stroke="#000000" stroke-width="1" fill="none"></path></g><g transform="translate(334.89323797470115 250.8822711848677) rotate(0 32.811305329845425 33.65621509746532)"><path d="M54.85 41.49 C56.95 48.52, 62.59 54.22, 67.24 67.53 M54.29 39.89 C55.88 46.93, 59.65 51.72, 65.44 67.58" stroke="#000000" stroke-width="1" fill="none"></path></g></g><mask></mask><g transform="translate(404.6781311035156 347.7363586425781) rotate(0 40 15)"><text x="0" y="23" font-family="Virgil, Segoe UI Emoji" font-size="20px" fill="#000000" text-anchor="start" style="white-space: pre;" direction="ltr">-2(終了)</text></g></svg>